PathFileType	4	(X/Y/Z)	./resultDataOpenSim/trcMotMarkerGrf/sub09/qtm-02-03.trc
DataRate	CameraRate	NumFrames	NumMarkers	Units	OrigDataRate	OrigDataStartFrame	OrigNumFrames
250.000000	250.000000	6	24	m	250.000000	1	472
Frame#	Time	L.Toe.Tip			R.Toe.Tip			L.Ankle.Lat			R.Ankle.Lat			L.Ankle.Med			R.Ankle.Med			L.Heel			R.Heel			L.Knee.Lat			R.Knee.Lat			L.Knee.Med			R.Knee.Med			L.Thigh.Upper			R.Thigh.Upper			L.ASIS			R.ASIS			V.Sacral			L.Acromium			R.Acromium			C7			L.Elbow			R.Elbow			L.Wrist.Lat			R.Wrist.Lat
		X1	Y1	Z1	X2	Y2	Z2	X3	Y3	Z3	X4	Y4	Z4	X5	Y5	Z5	X6	Y6	Z6	X7	Y7	Z7	X8	Y8	Z8	X9	Y9	Z9	X10	Y10	Z10	X11	Y11	Z11	X12	Y12	Z12	X13	Y13	Z13	X14	Y14	Z14	X15	Y15	Z15	X16	Y16	Z16	X17	Y17	Z17	X18	Y18	Z18	X19	Y19	Z19	X20	Y20	Z20	X21	Y21	Z21	X22	Y22	Z22	X23	Y23	Z23	X24	Y24	Z24

1	0	-1.4851012	0.03690754	-0.0035931502	-0.90607928	0.094024869	0.10996541	-1.6360798	0.079303125	-0.038109246	-1.0569394	0.07263499	0.13837446	-1.606095	0.099932473	0.052818718	-1.050728	0.11202503	0.047551573	NaN	NaN	NaN	-1.107225	0.032668563	0.083108333	-1.4912948	0.472421	-0.10733738	-1.1408473	0.52526811	0.17795139	-1.4866517	0.47406518	0.018908116	-1.1422731	0.50342503	0.050880521	-1.3806456	0.87841176	-0.15777329	-1.3450635	0.87563308	0.21183247	-1.2734542	0.95000112	-0.10581895	-1.2644939	0.956317	0.13378346	-1.4307935	1.0181553	0.023986837	-1.2326754	1.4035817	-0.14905215	-1.2710189	1.4184985	0.17757389	-1.3116286	1.464417	0.010244164	-1.3481352	1.045579	-0.21759719	-1.4394253	1.1022695	0.27361528	-1.1183515	0.90033905	-0.19547151	-1.3347152	0.85281079	0.31239765
2	0.004	-1.4850074	0.036868138	-0.0036056856	-0.89018791	0.098011895	0.10924648	-1.6357174	0.08003468	-0.038051379	-1.040792	0.073005648	0.13750174	-1.605477	0.100438	0.052903522	-1.0350111	0.11291054	0.046906724	NaN	NaN	NaN	-1.0897826	0.03210544	0.082098114	-1.4879003	0.4721523	-0.10722706	-1.1349545	0.52360484	0.17822038	-1.4835296	0.47380243	0.018992303	-1.1354333	0.50207435	0.050784498	-1.3749906	0.87730805	-0.15753806	-1.3390578	0.87390245	0.21191068	-1.2675954	0.94873861	-0.10580826	-1.2582597	0.95482859	0.13379095	-1.4248047	1.0164845	0.02413193	-1.2267021	1.402209	-0.1488803	-1.2650673	1.4170534	0.17780917	-1.3055854	1.4630203	0.010711646	-1.3414771	1.043847	-0.21748129	-1.4328029	1.1002695	0.2733235	-1.1109091	0.89989044	-0.19515416	-1.3285428	0.85121763	0.31260933
3	0.008	-1.4849192	0.036824214	-0.0036206257	-0.874537	0.10205708	0.10860142	-1.63534	0.080778923	-0.038026124	-1.0248993	0.073462104	0.1366355	-1.6048187	0.10096221	0.052939083	-1.019528	0.11386863	0.046241562	NaN	NaN	NaN	-1.0725358	0.031606777	0.081241505	-1.4844379	0.47187935	-0.10714931	-1.1290329	0.52188678	0.17840985	-1.4802931	0.47353747	0.019095242	-1.1286068	0.50071828	0.050669418	-1.3693071	0.87617694	-0.15730304	-1.3329177	0.87218425	0.21201436	-1.261696	0.94747896	-0.10580449	-1.2519887	0.9533607	0.13381936	-1.4187773	1.0148243	0.024317293	-1.2206947	1.4008316	-0.14870958	-1.2590966	1.415598	0.17803754	-1.2993685	1.4617008	0.011624183	-1.3348197	1.0421288	-0.21732763	-1.4261909	1.0982415	0.27303914	-1.1034762	0.89943239	-0.19485528	-1.322273	0.84962197	0.31281733
4	0.012	-1.4848373	0.036775345	-0.0036442107	-0.85933637	0.10615685	0.10814672	-1.634931	0.081561003	-0.038056085	-1.0093108	0.074103485	0.13578461	-1.6041066	0.10152771	0.052893173	-1.0044116	0.11492755	0.045557518	NaN	NaN	NaN	-1.0556491	0.031237895	0.080533323	-1.4808528	0.47160612	-0.10713001	-1.1230838	0.52008761	0.17848663	-1.4768371	0.47325979	0.019195827	-1.1217663	0.49936195	0.050527109	-1.3635699	0.875008	-0.1570586	-1.3265773	0.87047491	0.21214492	-1.255735	0.94621173	-0.10581832	-1.2456551	0.95192158	0.13387133	-1.4126891	1.0131766	0.024567218	-1.2146274	1.3994495	-0.14853694	-1.2530641	1.4141321	0.17825706	-1.2929783	1.4604517	0.012920916	-1.3281571	1.0404357	-0.21712626	-1.4196488	1.0962419	0.27281169	-1.0960603	0.8989514	-0.19458532	-1.3158697	0.8480246	0.31301043
5	0.016	-1.484757	0.036727081	-0.0036819437	-0.84471893	0.11024133	0.10790114	-1.6344766	0.082393309	-0.038156985	-0.99387003	0.075051613	0.13498837	-1.6033716	0.10215265	0.052757325	-0.98972802	0.1160727	0.044860707	NaN	NaN	NaN	-1.0392858	0.031058059	0.079823921	-1.4771047	0.47132791	-0.10717373	-1.1170823	0.51823972	0.17847291	-1.4731246	0.47296037	0.019255297	-1.1149028	0.49801783	0.050352372	-1.3577782	0.87380664	-0.15679203	-1.3200611	0.86876559	0.21228936	-1.2497185	0.94493391	-0.10585605	-1.2392448	0.9505124	0.13393875	-1.4065513	1.0115372	0.024892352	-1.2085014	1.3980704	-0.14836171	-1.2469485	1.4126643	0.17847041	-1.2865896	1.459204	0.014100345	-1.3214928	1.0387798	-0.21688026	-1.4132125	1.0943542	0.27268053	-1.0886831	0.89843151	-0.19435044	-1.3093806	0.84643061	0.31317612
6	0.02	-1.484674	0.036686609	-0.0037329535	-0.83070011	0.1142241	0.10775789	-1.6339715	0.083264003	-0.038338559	-0.97840001	0.07637908	0.13429921	-1.6026592	0.1028373	0.052540901	-0.97549736	0.11727662	0.044149467	NaN	NaN	NaN	-1.0235445	0.031078869	0.078997138	-1.4731558	0.47101771	-0.10726695	-1.1109601	0.51640784	0.17840879	-1.4692207	0.47263747	0.019263329	-1.1080787	0.49669464	0.050130223	-1.3519379	0.87258273	-0.15649409	-1.3134095	0.86705147	0.21244625	-1.2436454	0.94365529	-0.10591378	-1.2327269	0.94912987	0.13401916	-1.4003841	1.0098961	0.025286054	-1.2023149	1.3967016	-0.14818127	-1.2407454	1.4111975	0.17868012	-1.280333	1.4579089	0.014817805	-1.3148313	1.037168	-0.2165986	-1.4068407	1.0925923	0.27263265	-1.0813561	0.89785995	-0.19415034	-1.3028592	0.84484072	0.31330862
